<svg xmlns="http://www.w3.org/2000/svg" width="24" height="24" fill="none" viewBox="0 0 24 24">
  <path fill="#1C1B1F" d="M6.027 1.25a.75.75 0 0 0 0 1.5v-1.5Zm12 1.5a.75.75 0 0 0 0-1.5v1.5Zm-8.99 4.77.674.326a.75.75 0 0 0 .075-.327h-.75Zm0-5.52v-.75a.75.75 0 0 0-.75.75h.75Zm6.004 0h.75a.75.75 0 0 0-.75-.75V2Zm0 5.52h-.75a.75.75 0 0 0 .074.325l.676-.326ZM3.924 21.836l.327-.676-.327.675Zm-.76-2.186.675.326-.675-.326Zm17.73.002.676-.326-.676.326ZM6.027 2.75h12v-1.5h-12v1.5Zm.063 12.577 3.621-7.48-1.35-.654-3.621 7.48 1.35.654Zm3.696-7.808V2h-1.5v5.52h1.5Zm-.75-4.769h6.005v-1.5H9.036v1.5ZM14.291 2v5.52h1.5V2h-1.5Zm.074 5.845 3.61 7.48 1.35-.65-3.609-7.482-1.35.652ZM4.251 21.161a.886.886 0 0 1-.412-1.184l-1.35-.653a2.386 2.386 0 0 0 1.108 3.188l.654-1.35Zm-.412-1.184 2.251-4.65-1.35-.654-2.251 4.65 1.35.654ZM5.415 15a78.858 78.858 0 0 0-.426.617l.002.002.004.002.012.009a3.758 3.758 0 0 0 .18.114 8.17 8.17 0 0 0 2.23.922c1.423.348 3.348.362 5.09-1.09l-.96-1.152c-1.258 1.048-2.64 1.062-3.773.785a6.671 6.671 0 0 1-1.908-.81l-.022-.014a.045.045 0 0 1-.004-.003h.001v.001L5.415 15Zm7.092.576c1.257-1.048 2.641-1.062 3.778-.785a6.713 6.713 0 0 1 1.94.827L18.65 15c.426-.617.425-.617.425-.618l-.002-.001-.004-.003-.012-.008a4.802 4.802 0 0 0-.18-.114 8.203 8.203 0 0 0-2.235-.922c-1.425-.348-3.353-.362-5.095 1.09l.96 1.152Zm5.467-.25 2.245 4.652 1.35-.651-2.244-4.653-1.35.652Zm2.245 4.652c.058.12.088.252.088.386h1.5c0-.36-.081-.714-.237-1.037l-1.351.651Zm.088.386c0 .49-.397.886-.887.886v1.5a2.386 2.386 0 0 0 2.387-2.386h-1.5Zm-.887.886H4.637v1.5H19.42v-1.5Zm-14.783 0a.886.886 0 0 1-.386-.089l-.654 1.35c.324.158.68.239 1.04.239v-1.5Z"/>
</svg>
