<svg xmlns="http://www.w3.org/2000/svg" width="24" height="24" fill="none" viewBox="0 0 24 24">
  <path fill="#1C1B1F" fill-rule="evenodd" d="M3.766 2.847A.75.75 0 0 1 4.5 2.25h15a.75.75 0 0 1 .734.597l2.5 12a.75.75 0 0 1-1.468.306L18.89 3.75H5.11L2.734 15.153a.75.75 0 1 1-1.468-.306l2.5-12Z" clip-rule="evenodd"/>
  <path fill="#1C1B1F" fill-rule="evenodd" d="M1.25 15a.75.75 0 0 1 .75-.75h5.455a.75.75 0 0 1 .717.533l.748 2.467h6.16l.748-2.467a.75.75 0 0 1 .718-.533H22a.75.75 0 0 1 .75.75v6.5a.75.75 0 0 1-.75.75H2a.75.75 0 0 1-.75-.75V15Zm1.5.75v5h18.5v-5h-4.148l-.748 2.468a.75.75 0 0 1-.718.532H8.364a.75.75 0 0 1-.718-.532l-.748-2.468H2.75Zm5.72-5.22a.75.75 0 0 0 1.06 0L12 8.06l2.47 2.47a.75.75 0 1 0 1.06-1.06l-3-3a.75.75 0 0 0-1.06 0l-3 3a.75.75 0 0 0 0 1.06Z" clip-rule="evenodd"/>
  <path fill="#1C1B1F" fill-rule="evenodd" d="M12 6.25a.75.75 0 0 1 .75.75v6a.75.75 0 0 1-1.5 0V7a.75.75 0 0 1 .75-.75Z" clip-rule="evenodd"/>
</svg>
