<svg xmlns="http://www.w3.org/2000/svg" width="24" height="24" fill="none" viewBox="0 0 24 24">
  <path fill="#1C1B1F" d="m9.826 6.226-.605.336.605-.336Zm1.13 2.034.605-.336-.606.336Zm.018.861.62.31-.62-.31Zm-1.088 2.176-.62-.31a.692.692 0 0 0-.06.442l.68-.132Zm1.635 2.94.49-.49-.49.49Zm2.934 1.629-.13.68c.15.028.304.007.44-.061l-.31-.62Zm2.175-1.088.31.62-.31-.62Zm.862.019.336-.605-.336.605Zm2.04 1.134-.337.605.336-.605Zm-1.764 4.82.222-.655-.222.656ZM5.005 7.99l-.656.221.656-.221Zm14.134-3.5a.692.692 0 1 0-.98-.979l.98.98Zm-4.182 3.203-.49-.49a.692.692 0 0 0 0 .98l.49-.49Zm3.203 4.182a.692.692 0 0 0 .979-.979l-.98.98Zm4.181-3.486a.692.692 0 1 0 0-1.384v1.384Zm-7.384-1.384a.692.692 0 1 0 0 1.384V7.004Zm-5.938-.56a.23.23 0 0 1 .202.118l1.21-.672A1.615 1.615 0 0 0 9.02 5.06v1.384Zm.202.118 1.129 2.034 1.21-.672-1.129-2.034-1.21.672Zm1.129 2.034a.23.23 0 0 1 .005.215l1.238.62a1.616 1.616 0 0 0-.032-1.507l-1.211.672Zm.005.215-1.088 2.176 1.238.62 1.088-2.176-1.238-.62Zm-.469 2.486-.68.132v.002l.001.002.002.007a2.278 2.278 0 0 0 .02.09 6.908 6.908 0 0 0 .343 1.014 6.97 6.97 0 0 0 1.46 2.182l.978-.98A5.585 5.585 0 0 1 10.845 12a5.524 5.524 0 0 1-.27-.792 1.835 1.835 0 0 1-.008-.039l-.002-.007v.002l-.679.133Zm1.145 3.429a6.94 6.94 0 0 0 2.18 1.457 6.828 6.828 0 0 0 1.013.34 3.235 3.235 0 0 0 .096.021l.003.001h.001l.131-.68.13-.68h.001l.002.001-.007-.001-.039-.01a5.446 5.446 0 0 1-.788-.267 5.556 5.556 0 0 1-1.744-1.161l-.979.979Zm3.734 1.759 2.175-1.088-.62-1.238-2.175 1.087.62 1.239Zm2.175-1.088a.23.23 0 0 1 .215.005l.673-1.21a1.615 1.615 0 0 0-1.507-.033l.619 1.238Zm.215.005 2.04 1.134.673-1.21-2.04-1.134-.673 1.21Zm2.04 1.134a.23.23 0 0 1 .119.201h1.384c0-.586-.318-1.126-.83-1.411l-.673 1.21Zm.119.201v2.342h1.384v-2.341h-1.384Zm0 2.342c0 .76-.681 1.234-1.324 1.017l-.443 1.312c1.617.545 3.151-.704 3.151-2.329h-1.384Zm-1.324 1.017c-2.306-.779-5.776-2.229-7.938-4.391l-.98.98c2.405 2.403 6.14 3.935 8.475 4.723l.443-1.312Zm-7.938-4.391c-2.162-2.162-3.612-5.632-4.39-7.938l-1.313.443c.788 2.335 2.32 6.07 4.724 8.474l.979-.979Zm-4.39-7.938c-.218-.643.256-1.324 1.016-1.324V5.06c-1.625 0-2.874 1.534-2.329 3.151l1.312-.443Zm1.016-1.324h2.341V5.06H6.678v1.384ZM18.16 3.51l-3.693 3.693.98.979 3.692-3.692-.98-.98Zm-3.693 4.672 3.693 3.692.979-.979-3.693-3.692-.979.979Zm7.874-1.178h-7.384v1.384h7.384V7.004Z"/>
</svg>
