<svg xmlns="http://www.w3.org/2000/svg" width="24" height="24" fill="none" viewBox="0 0 24 24">
  <path fill="#1C1B1F" d="M5.962 3.093h2.536a1.75 1.75 0 0 1 1.53.9l1.223 2.204a1.75 1.75 0 0 1 .036 1.632l-1.054 2.107c.039.134.099.319.185.536a.75.75 0 0 1-.233.868l-2.549 2a.75.75 0 0 1-1.091-.181c-1.47-2.26-2.49-4.83-3.105-6.651-.591-1.751.76-3.415 2.522-3.415ZM9.437 9.85l-.736.144a.75.75 0 0 1 .066-.48l1.178-2.356a.25.25 0 0 0-.005-.233L8.717 4.72a.25.25 0 0 0-.219-.128H5.962c-.822 0-1.336.738-1.101 1.435.532 1.576 1.362 3.682 2.508 5.615l1.465-1.15a6.428 6.428 0 0 1-.127-.47l-.004-.019-.001-.006v-.004l.735-.144Zm7.642 4.443-2.357 1.178a.75.75 0 0 1-.476.066l.141-.737-.141.737h-.002l-.003-.001-.008-.002-.022-.005a3.959 3.959 0 0 1-.326-.083 7.412 7.412 0 0 1-.84-.3.75.75 0 1 1 .587-1.38c.275.116.508.193.668.239l2.108-1.054a1.75 1.75 0 0 1 1.633.036l2.21 1.228c.555.309.9.894.9 1.53v2.536c0 1.762-1.666 3.113-3.416 2.522-1.9-.641-4.617-1.725-6.947-3.301a.75.75 0 0 1 .84-1.242c2.168 1.466 4.74 2.499 6.587 3.122.697.235 1.435-.279 1.435-1.1v-2.537a.25.25 0 0 0-.128-.219l-2.21-1.228a.25.25 0 0 0-.233-.005ZM20.53 3.47a.75.75 0 0 1 0 1.06l-16 16a.75.75 0 1 1-1.06-1.06l16-16a.75.75 0 0 1 1.06 0Z"/>
</svg>
