<svg xmlns="http://www.w3.org/2000/svg" width="24" height="24" fill="none" viewBox="0 0 24 24">
  <path fill="#1C1B1F" fill-rule="evenodd" d="M2.25 8A.75.75 0 0 1 3 7.25h18a.75.75 0 0 1 0 1.5H3A.75.75 0 0 1 2.25 8Z" clip-rule="evenodd"/>
  <path fill="#1C1B1F" fill-rule="evenodd" d="M8 2.25a.75.75 0 0 1 .75.75v18a.75.75 0 0 1-1.5 0V3A.75.75 0 0 1 8 2.25Zm8 0a.75.75 0 0 1 .75.75v18a.75.75 0 0 1-1.5 0V3a.75.75 0 0 1 .75-.75Z" clip-rule="evenodd"/>
  <path fill="#1C1B1F" fill-rule="evenodd" d="M2.25 16a.75.75 0 0 1 .75-.75h18a.75.75 0 0 1 0 1.5H3a.75.75 0 0 1-.75-.75Z" clip-rule="evenodd"/>
</svg>
